<svg xmlns="http://www.w3.org/2000/svg" xmlns:xlink="http://www.w3.org/1999/xlink" width="500" zoomAndPan="magnify" viewBox="0 0 375 374.999991" height="500" preserveAspectRatio="xMidYMid meet" version="1.0"><defs><g/><clipPath id="e380e61744"><path d="M 95.332031 117.566406 L 279.832031 117.566406 L 279.832031 254 L 95.332031 254 Z M 95.332031 117.566406 " clip-rule="nonzero"/></clipPath></defs><rect x="-37.5" width="450" fill="#ffffff" y="-37.499999" height="449.999989" fill-opacity="1"/><rect x="-37.5" width="450" fill="#ffffff" y="-37.499999" height="449.999989" fill-opacity="1"/><rect x="-37.5" width="450" fill="#000000" y="-37.499999" height="449.999989" fill-opacity="1"/><g clip-path="url(#e380e61744)"><path fill="#ffffff" d="M 278.6875 252.949219 C 267.875 245.523438 254.625 242.910156 241.964844 240.375 C 241.929688 226.175781 242.039062 211.980469 241.816406 197.785156 L 241.929688 197.457031 C 246.726562 197.566406 251.523438 197.492188 256.359375 197.492188 C 256.359375 194.953125 256.394531 192.417969 256.320312 189.878906 C 255.988281 189.695312 255.363281 189.289062 255.03125 189.070312 C 249.898438 186.015625 244.953125 182.707031 239.898438 179.582031 C 232.441406 174.875 224.988281 170.09375 217.496094 165.460938 C 213.175781 162.554688 208.710938 159.871094 204.320312 157.074219 C 202.511719 155.933594 200.703125 154.792969 198.894531 153.617188 C 199.261719 152.585938 199.59375 151.558594 200 150.527344 C 201.144531 148.027344 202.734375 145.527344 205.242188 144.203125 C 207.640625 142.730469 210.558594 142.839844 213.25 142.914062 C 216.71875 143.46875 220.191406 144.828125 222.625 147.476562 C 223.363281 148.46875 224.027344 149.460938 224.730469 150.492188 C 229.710938 150.417969 234.695312 150.601562 239.675781 150.453125 C 241.042969 150.566406 241.855469 149.167969 242.074219 147.992188 C 244.03125 139.347656 244.546875 130.226562 242.59375 121.511719 C 242.222656 119.964844 241.667969 117.796875 239.640625 117.90625 C 234.621094 117.722656 229.601562 117.871094 224.542969 117.871094 C 221.039062 123.128906 214.542969 126.84375 208.085938 125.628906 C 203.804688 124.929688 200.1875 122.394531 196.9375 119.746094 C 194.835938 117.796875 191.734375 118.605469 189.113281 118.457031 C 182.25 118.714844 175.199219 117.648438 168.554688 119.820312 C 159.402344 122.726562 151.136719 128.019531 144.125 134.53125 C 136.300781 141.921875 128.84375 150.859375 127.074219 161.820312 C 127.074219 162.261719 127.109375 163.105469 127.109375 163.511719 C 129.546875 163.695312 131.980469 163.65625 134.417969 163.582031 C 135.523438 161.5625 136.667969 159.613281 138.070312 157.773438 C 141.355469 153.617188 145.601562 150.308594 150.140625 147.621094 C 155.710938 144.71875 162.0625 141.886719 168.519531 143.136719 C 172.617188 143.871094 175.164062 147.476562 176.75 151.042969 C 176.898438 151.960938 177.007812 152.882812 177.15625 153.839844 C 167.558594 159.648438 158.222656 165.828125 148.699219 171.710938 C 139.363281 177.742188 129.914062 183.628906 120.503906 189.585938 L 119.875 189.988281 C 119.652344 192.527344 119.726562 195.027344 119.726562 197.566406 C 124.527344 197.269531 129.285156 197.492188 134.085938 197.382812 C 134.046875 211.503906 134.160156 225.625 133.9375 239.710938 L 133.898438 240.117188 C 120.722656 243.242188 106.441406 245.523438 95.332031 253.980469 C 108.285156 249.53125 121.757812 246.664062 135.300781 244.785156 C 146.191406 243.242188 157.1875 242.433594 168.148438 241.734375 C 189.484375 240.816406 210.890625 241.441406 232.148438 243.71875 C 248.3125 245.707031 264.441406 248.5 279.832031 253.871094 C 279.574219 253.648438 278.984375 253.207031 278.6875 252.949219 Z M 186.824219 158.582031 C 190.699219 158.875 194.980469 157.625 198.378906 160.054688 C 199.300781 162.589844 199.042969 165.347656 199.117188 168.035156 C 199.078125 172.484375 199.003906 176.933594 199.117188 181.382812 C 199.042969 186.863281 198.929688 192.378906 199.117188 197.859375 C 198.929688 210.511719 199.078125 223.160156 199.003906 235.8125 C 198.96875 235.851562 198.894531 235.851562 198.855469 235.886719 L 195.535156 235.886719 C 195.386719 235.851562 195.203125 235.8125 195.09375 235.8125 C 195.167969 227.539062 195.054688 219.226562 195.128906 210.953125 C 190.589844 210.804688 186.050781 210.914062 181.511719 210.914062 C 181.511719 219.226562 181.472656 227.574219 181.472656 235.886719 L 177.265625 235.886719 C 177.304688 211.246094 177.230469 186.605469 177.191406 162.003906 C 178.449219 157.734375 183.394531 158.546875 186.824219 158.582031 Z M 157.890625 221.359375 C 154.828125 221.285156 151.800781 221.324219 148.738281 221.285156 C 148.738281 218.269531 148.738281 215.253906 148.738281 212.238281 C 151.800781 212.238281 154.863281 212.277344 157.925781 212.203125 C 158.039062 215.253906 158.113281 218.308594 157.890625 221.359375 Z M 158 209.703125 C 154.902344 209.738281 151.761719 209.738281 148.664062 209.628906 C 148.738281 206.648438 148.738281 203.632812 148.699219 200.65625 C 151.691406 200.617188 154.714844 200.542969 157.742188 200.65625 C 157.816406 200.765625 158 200.984375 158.074219 201.097656 C 158.039062 203.929688 157.964844 206.796875 158 209.703125 Z M 169.8125 221.285156 L 160.804688 221.285156 C 160.769531 218.269531 160.730469 215.253906 160.730469 212.238281 C 163.757812 212.238281 166.785156 212.238281 169.8125 212.238281 C 169.847656 215.253906 169.847656 218.269531 169.8125 221.285156 Z M 169.847656 209.703125 C 166.859375 209.664062 163.867188 209.664062 160.878906 209.738281 C 160.769531 206.832031 160.730469 203.890625 160.65625 200.984375 L 160.804688 200.582031 C 163.867188 200.691406 166.933594 200.691406 169.996094 200.691406 L 170.105469 200.949219 C 169.8125 203.855469 169.8125 206.796875 169.847656 209.703125 Z M 215.980469 221.433594 L 206.460938 221.433594 L 206.460938 211.945312 L 215.980469 211.945312 Z M 215.980469 209.921875 L 206.460938 209.921875 L 206.460938 200.433594 L 215.980469 200.433594 Z M 227.902344 221.433594 L 218.382812 221.433594 L 218.382812 211.945312 L 227.902344 211.945312 Z M 227.902344 209.921875 L 218.382812 209.921875 L 218.382812 200.433594 L 227.902344 200.433594 Z M 227.902344 209.921875 " fill-opacity="1" fill-rule="nonzero"/></g><g fill="#ffde59" fill-opacity="1"><g transform="translate(93.246675, 275.484709)"><g><path d="M 1.015625 -1.203125 C 1.640625 -1.328125 2.054688 -1.515625 2.265625 -1.765625 C 2.484375 -2.015625 2.59375 -2.445312 2.59375 -3.0625 L 2.59375 -11.578125 C 2.59375 -12.023438 2.539062 -12.328125 2.4375 -12.484375 C 2.332031 -12.640625 2.117188 -12.71875 1.796875 -12.71875 L 1.140625 -12.6875 L 1.03125 -12.875 L 1.1875 -14.140625 L 3.8125 -14.125 C 4.375 -14.125 5.460938 -14.175781 7.078125 -14.28125 L 6.953125 -12.828125 C 6.566406 -12.765625 6.289062 -12.6875 6.125 -12.59375 C 5.957031 -12.5 5.835938 -12.351562 5.765625 -12.15625 C 5.703125 -11.96875 5.65625 -11.660156 5.625 -11.234375 L 5.5 -8.078125 L 8.375 -8.03125 C 9.144531 -8.03125 10.019531 -8.082031 11 -8.1875 L 11 -11.578125 C 11 -12.023438 10.945312 -12.328125 10.84375 -12.484375 C 10.738281 -12.640625 10.523438 -12.71875 10.203125 -12.71875 L 9.53125 -12.6875 L 9.421875 -12.875 L 9.59375 -14.140625 L 12.359375 -14.125 C 12.847656 -14.125 13.910156 -14.175781 15.546875 -14.28125 L 15.4375 -12.84375 C 14.894531 -12.769531 14.539062 -12.65625 14.375 -12.5 C 14.207031 -12.351562 14.109375 -12.066406 14.078125 -11.640625 C 14.003906 -10.347656 13.941406 -8.863281 13.890625 -7.1875 C 13.835938 -5.519531 13.8125 -4.117188 13.8125 -2.984375 C 13.8125 -2.367188 13.875 -1.953125 14 -1.734375 C 14.125 -1.515625 14.363281 -1.40625 14.71875 -1.40625 C 14.875 -1.40625 15.148438 -1.425781 15.546875 -1.46875 L 15.640625 -1.3125 L 15.4375 0.0625 C 15.238281 0.0625 15.085938 0.0546875 14.984375 0.046875 C 13.867188 0.015625 12.96875 0 12.28125 0 L 9.234375 0.046875 L 9.421875 -1.359375 C 9.835938 -1.378906 10.160156 -1.445312 10.390625 -1.5625 C 10.617188 -1.675781 10.773438 -1.875 10.859375 -2.15625 C 10.953125 -2.445312 11 -2.863281 11 -3.40625 L 11 -6.25 L 8.578125 -6.265625 C 8.253906 -6.265625 7.8125 -6.242188 7.25 -6.203125 C 6.695312 -6.160156 6.097656 -6.109375 5.453125 -6.046875 L 5.390625 -2.90625 C 5.390625 -2.300781 5.445312 -1.894531 5.5625 -1.6875 C 5.675781 -1.488281 5.90625 -1.390625 6.25 -1.390625 C 6.394531 -1.390625 6.664062 -1.410156 7.0625 -1.453125 L 7.171875 -1.3125 L 6.96875 0.0625 C 5.914062 0.0195312 5.035156 0 4.328125 0 C 3.835938 0 3.226562 0.0195312 2.5 0.0625 C 1.769531 0.101562 1.222656 0.148438 0.859375 0.203125 Z M 1.015625 -1.203125 "/></g></g></g><g fill="#ffde59" fill-opacity="1"><g transform="translate(109.677746, 275.484709)"><g><path d="M 6.9375 0.265625 C 5.644531 0.265625 4.523438 -0.015625 3.578125 -0.578125 C 2.628906 -1.148438 1.898438 -1.953125 1.390625 -2.984375 C 0.890625 -4.023438 0.640625 -5.257812 0.640625 -6.6875 C 0.640625 -8.207031 0.9375 -9.546875 1.53125 -10.703125 C 2.132812 -11.867188 2.984375 -12.773438 4.078125 -13.421875 C 5.171875 -14.066406 6.429688 -14.390625 7.859375 -14.390625 C 9.171875 -14.390625 10.304688 -14.113281 11.265625 -13.5625 C 12.234375 -13.007812 12.96875 -12.21875 13.46875 -11.1875 C 13.976562 -10.15625 14.234375 -8.925781 14.234375 -7.5 C 14.234375 -5.976562 13.925781 -4.625 13.3125 -3.4375 C 12.707031 -2.257812 11.851562 -1.347656 10.75 -0.703125 C 9.644531 -0.0546875 8.375 0.265625 6.9375 0.265625 Z M 7.5 -1.609375 C 8.5625 -1.609375 9.390625 -2.019531 9.984375 -2.84375 C 10.578125 -3.675781 10.875 -4.847656 10.875 -6.359375 C 10.875 -8.273438 10.554688 -9.742188 9.921875 -10.765625 C 9.285156 -11.785156 8.390625 -12.296875 7.234375 -12.296875 C 6.191406 -12.296875 5.378906 -11.878906 4.796875 -11.046875 C 4.222656 -10.222656 3.9375 -9.054688 3.9375 -7.546875 C 3.9375 -5.617188 4.25 -4.144531 4.875 -3.125 C 5.5 -2.113281 6.375 -1.609375 7.5 -1.609375 Z M 7.5 -1.609375 "/></g></g></g><g fill="#ffde59" fill-opacity="1"><g transform="translate(124.525103, 275.484709)"><g><path d="M 11.59375 0.59375 C 10.15625 -1.695312 8.707031 -3.925781 7.25 -6.09375 C 5.789062 -8.257812 5.0625 -9.332031 5.0625 -9.3125 L 4.859375 -9.3125 L 4.84375 -2.375 C 4.84375 -1.988281 4.894531 -1.726562 5 -1.59375 C 5.113281 -1.457031 5.3125 -1.390625 5.59375 -1.390625 L 6.5625 -1.4375 L 6.671875 -1.296875 L 6.453125 0.09375 C 6.242188 0.0703125 5.859375 0.0507812 5.296875 0.03125 C 4.742188 0.0078125 4.1875 0 3.625 0 C 3.144531 0 2.625 0.0234375 2.0625 0.078125 C 1.507812 0.128906 1.148438 0.160156 0.984375 0.171875 L 1.140625 -1.28125 C 1.597656 -1.332031 1.925781 -1.460938 2.125 -1.671875 C 2.332031 -1.890625 2.445312 -2.21875 2.46875 -2.65625 L 2.734375 -11.390625 C 2.734375 -11.859375 2.613281 -12.1875 2.375 -12.375 C 2.144531 -12.570312 1.671875 -12.707031 0.953125 -12.78125 L 0.796875 -12.984375 L 0.953125 -14.234375 C 1.109375 -14.222656 1.445312 -14.203125 1.96875 -14.171875 C 2.5 -14.140625 2.992188 -14.125 3.453125 -14.125 C 3.835938 -14.125 4.242188 -14.132812 4.671875 -14.15625 C 5.109375 -14.175781 5.390625 -14.195312 5.515625 -14.21875 C 6.722656 -12.25 8.019531 -10.222656 9.40625 -8.140625 C 10.789062 -6.054688 11.484375 -5.03125 11.484375 -5.0625 L 11.703125 -5.0625 L 11.65625 -11.765625 C 11.644531 -12.109375 11.582031 -12.351562 11.46875 -12.5 C 11.363281 -12.644531 11.1875 -12.71875 10.9375 -12.71875 L 10.15625 -12.6875 L 10.09375 -12.84375 L 10.25 -14.21875 C 10.457031 -14.195312 10.832031 -14.175781 11.375 -14.15625 C 11.925781 -14.132812 12.484375 -14.125 13.046875 -14.125 C 13.484375 -14.125 13.976562 -14.140625 14.53125 -14.171875 C 15.082031 -14.203125 15.445312 -14.222656 15.625 -14.234375 L 15.515625 -12.78125 C 15.015625 -12.707031 14.65625 -12.566406 14.4375 -12.359375 C 14.226562 -12.160156 14.117188 -11.835938 14.109375 -11.390625 L 13.8125 0.3125 Z M 11.59375 0.59375 "/></g></g></g><g fill="#ffde59" fill-opacity="1"><g transform="translate(140.538248, 275.484709)"><g><path d="M 12.25 -4.15625 C 12.019531 -3.007812 11.820312 -1.65625 11.65625 -0.09375 L 11.4375 0.15625 C 8.632812 0.0507812 6.351562 0 4.59375 0 C 3.363281 0 2.113281 0.0703125 0.84375 0.21875 L 0.984375 -1.25 C 1.597656 -1.34375 2.015625 -1.519531 2.234375 -1.78125 C 2.460938 -2.039062 2.578125 -2.492188 2.578125 -3.140625 L 2.59375 -11.53125 C 2.59375 -12.007812 2.546875 -12.328125 2.453125 -12.484375 C 2.367188 -12.640625 2.179688 -12.71875 1.890625 -12.71875 C 1.703125 -12.71875 1.472656 -12.703125 1.203125 -12.671875 L 1.078125 -12.875 L 1.25 -14.1875 L 1.6875 -14.1875 C 2.726562 -14.144531 3.910156 -14.125 5.234375 -14.125 C 8.503906 -14.125 10.734375 -14.210938 11.921875 -14.390625 L 12.09375 -14.140625 C 11.976562 -13.597656 11.875 -12.953125 11.78125 -12.203125 C 11.6875 -11.460938 11.625 -10.78125 11.59375 -10.15625 L 9.640625 -10.03125 L 9.6875 -10.90625 C 9.6875 -11.351562 9.625 -11.664062 9.5 -11.84375 C 9.375 -12.03125 9.125 -12.15625 8.75 -12.21875 C 8.375 -12.28125 7.742188 -12.3125 6.859375 -12.3125 C 6.484375 -12.3125 6.222656 -12.296875 6.078125 -12.265625 C 5.929688 -12.242188 5.832031 -12.179688 5.78125 -12.078125 C 5.726562 -11.972656 5.691406 -11.804688 5.671875 -11.578125 L 5.515625 -8.125 L 7.59375 -8.09375 C 7.894531 -8.09375 8.273438 -8.109375 8.734375 -8.140625 C 9.203125 -8.179688 9.671875 -8.234375 10.140625 -8.296875 L 10.3125 -8.09375 L 10.015625 -6.21875 C 9.816406 -6.21875 9.664062 -6.226562 9.5625 -6.25 C 8.539062 -6.28125 7.726562 -6.296875 7.125 -6.296875 C 6.675781 -6.296875 6.113281 -6.25 5.4375 -6.15625 L 5.390625 -3.015625 C 5.390625 -2.597656 5.421875 -2.300781 5.484375 -2.125 C 5.554688 -1.957031 5.679688 -1.84375 5.859375 -1.78125 C 6.046875 -1.71875 6.363281 -1.6875 6.8125 -1.6875 C 7.78125 -1.6875 8.476562 -1.742188 8.90625 -1.859375 C 9.34375 -1.972656 9.65625 -2.195312 9.84375 -2.53125 C 10.039062 -2.863281 10.191406 -3.421875 10.296875 -4.203125 L 12.09375 -4.359375 Z M 12.25 -4.15625 "/></g></g></g><g fill="#ffde59" fill-opacity="1"><g transform="translate(153.647912, 275.484709)"><g><path d="M 3.140625 -1.234375 C 3.734375 -1.304688 4.164062 -1.410156 4.4375 -1.546875 C 4.707031 -1.691406 4.890625 -1.890625 4.984375 -2.140625 C 5.078125 -2.398438 5.125 -2.796875 5.125 -3.328125 L 5.125 -4 C 5.125 -4.394531 5.078125 -4.753906 4.984375 -5.078125 C 4.898438 -5.398438 4.734375 -5.796875 4.484375 -6.265625 L 2.328125 -10.453125 C 1.960938 -11.203125 1.617188 -11.726562 1.296875 -12.03125 C 0.972656 -12.34375 0.484375 -12.554688 -0.171875 -12.671875 L -0.21875 -12.78125 L -0.0625 -14.171875 C 0.132812 -14.171875 0.515625 -14.160156 1.078125 -14.140625 C 1.648438 -14.117188 2.207031 -14.109375 2.75 -14.109375 C 3.21875 -14.109375 3.851562 -14.128906 4.65625 -14.171875 C 5.46875 -14.222656 6.003906 -14.257812 6.265625 -14.28125 L 6.359375 -14.078125 L 6.25 -12.84375 C 5.75 -12.8125 5.398438 -12.742188 5.203125 -12.640625 C 5.003906 -12.546875 4.90625 -12.390625 4.90625 -12.171875 C 4.90625 -11.890625 5.40625 -10.675781 6.40625 -8.53125 C 6.695312 -7.863281 6.832031 -7.539062 6.8125 -7.5625 L 7.015625 -7.5625 L 8.796875 -11.265625 C 9.015625 -11.703125 9.125 -12.046875 9.125 -12.296875 C 9.125 -12.460938 9.03125 -12.582031 8.84375 -12.65625 C 8.664062 -12.738281 8.378906 -12.796875 7.984375 -12.828125 L 7.9375 -12.9375 L 8.09375 -14.1875 L 9.15625 -14.140625 C 9.945312 -14.117188 10.5625 -14.109375 11 -14.109375 C 11.40625 -14.109375 11.84375 -14.117188 12.3125 -14.140625 C 12.789062 -14.160156 13.09375 -14.175781 13.21875 -14.1875 L 13.3125 -14.03125 L 13.15625 -12.71875 C 12.570312 -12.53125 12.101562 -12.242188 11.75 -11.859375 C 11.40625 -11.472656 10.976562 -10.820312 10.46875 -9.90625 L 8.375 -5.96875 C 8.175781 -5.59375 8.054688 -5.210938 8.015625 -4.828125 C 7.984375 -4.453125 7.96875 -3.757812 7.96875 -2.75 C 7.96875 -2.269531 8.039062 -1.929688 8.1875 -1.734375 C 8.332031 -1.535156 8.59375 -1.4375 8.96875 -1.4375 C 9.238281 -1.4375 9.472656 -1.441406 9.671875 -1.453125 C 9.867188 -1.460938 10.003906 -1.476562 10.078125 -1.5 L 10.15625 -1.390625 L 9.96875 0.09375 C 9.695312 0.0703125 9.203125 0.0507812 8.484375 0.03125 C 7.765625 0.0078125 7.0625 0 6.375 0 C 5.851562 0 5.21875 0.03125 4.46875 0.09375 C 3.71875 0.164062 3.222656 0.210938 2.984375 0.234375 Z M 3.140625 -1.234375 "/></g></g></g><g fill="#ffde59" fill-opacity="1"><g transform="translate(166.713585, 275.484709)"><g><path d="M 7 0.265625 C 6.757812 0.234375 6.273438 0.179688 5.546875 0.109375 C 4.828125 0.0351562 4.203125 0 3.671875 0 C 3.191406 0 2.648438 0.0234375 2.046875 0.078125 C 1.441406 0.140625 1.050781 0.1875 0.875 0.21875 L 1.015625 -1.25 C 1.640625 -1.351562 2.0625 -1.535156 2.28125 -1.796875 C 2.507812 -2.066406 2.625 -2.507812 2.625 -3.125 L 2.625 -11.5 C 2.625 -11.96875 2.578125 -12.28125 2.484375 -12.4375 C 2.398438 -12.601562 2.21875 -12.6875 1.9375 -12.6875 C 1.769531 -12.6875 1.613281 -12.679688 1.46875 -12.671875 C 1.320312 -12.660156 1.226562 -12.65625 1.1875 -12.65625 L 1.078125 -12.84375 L 1.25 -14.1875 C 1.457031 -14.1875 1.835938 -14.175781 2.390625 -14.15625 C 2.953125 -14.132812 3.5 -14.125 4.03125 -14.125 C 4.675781 -14.125 5.347656 -14.132812 6.046875 -14.15625 C 6.753906 -14.175781 7.238281 -14.195312 7.5 -14.21875 C 8.96875 -14.21875 10.234375 -13.953125 11.296875 -13.421875 C 12.367188 -12.890625 13.191406 -12.132812 13.765625 -11.15625 C 14.335938 -10.175781 14.625 -9.003906 14.625 -7.640625 C 14.625 -6.109375 14.296875 -4.738281 13.640625 -3.53125 C 12.992188 -2.332031 12.09375 -1.398438 10.9375 -0.734375 C 9.78125 -0.0664062 8.46875 0.265625 7 0.265625 Z M 6.3125 -12.359375 C 6.082031 -12.359375 5.921875 -12.320312 5.828125 -12.25 C 5.742188 -12.175781 5.691406 -12.039062 5.671875 -11.84375 C 5.484375 -7.75 5.390625 -4.863281 5.390625 -3.1875 C 5.390625 -2.75 5.441406 -2.414062 5.546875 -2.1875 C 5.648438 -1.957031 5.835938 -1.796875 6.109375 -1.703125 C 6.378906 -1.617188 6.769531 -1.578125 7.28125 -1.578125 C 8.570312 -1.578125 9.554688 -2.03125 10.234375 -2.9375 C 10.921875 -3.851562 11.265625 -5.191406 11.265625 -6.953125 C 11.265625 -8.816406 10.859375 -10.179688 10.046875 -11.046875 C 9.234375 -11.921875 7.988281 -12.359375 6.3125 -12.359375 Z M 6.3125 -12.359375 "/></g></g></g><g fill="#ffde59" fill-opacity="1"><g transform="translate(181.978869, 275.484709)"><g><path d="M 6.9375 0.265625 C 5.644531 0.265625 4.523438 -0.015625 3.578125 -0.578125 C 2.628906 -1.148438 1.898438 -1.953125 1.390625 -2.984375 C 0.890625 -4.023438 0.640625 -5.257812 0.640625 -6.6875 C 0.640625 -8.207031 0.9375 -9.546875 1.53125 -10.703125 C 2.132812 -11.867188 2.984375 -12.773438 4.078125 -13.421875 C 5.171875 -14.066406 6.429688 -14.390625 7.859375 -14.390625 C 9.171875 -14.390625 10.304688 -14.113281 11.265625 -13.5625 C 12.234375 -13.007812 12.96875 -12.21875 13.46875 -11.1875 C 13.976562 -10.15625 14.234375 -8.925781 14.234375 -7.5 C 14.234375 -5.976562 13.925781 -4.625 13.3125 -3.4375 C 12.707031 -2.257812 11.851562 -1.347656 10.75 -0.703125 C 9.644531 -0.0546875 8.375 0.265625 6.9375 0.265625 Z M 7.5 -1.609375 C 8.5625 -1.609375 9.390625 -2.019531 9.984375 -2.84375 C 10.578125 -3.675781 10.875 -4.847656 10.875 -6.359375 C 10.875 -8.273438 10.554688 -9.742188 9.921875 -10.765625 C 9.285156 -11.785156 8.390625 -12.296875 7.234375 -12.296875 C 6.191406 -12.296875 5.378906 -11.878906 4.796875 -11.046875 C 4.222656 -10.222656 3.9375 -9.054688 3.9375 -7.546875 C 3.9375 -5.617188 4.25 -4.144531 4.875 -3.125 C 5.5 -2.113281 6.375 -1.609375 7.5 -1.609375 Z M 7.5 -1.609375 "/></g></g></g><g fill="#ffde59" fill-opacity="1"><g transform="translate(196.826227, 275.484709)"><g/></g></g><g fill="#ffde59" fill-opacity="1"><g transform="translate(200.653543, 275.484709)"><g><path d="M 1.015625 -1.203125 C 1.640625 -1.328125 2.054688 -1.515625 2.265625 -1.765625 C 2.484375 -2.015625 2.59375 -2.445312 2.59375 -3.0625 L 2.59375 -11.578125 C 2.59375 -12.023438 2.539062 -12.328125 2.4375 -12.484375 C 2.332031 -12.640625 2.117188 -12.71875 1.796875 -12.71875 L 1.140625 -12.6875 L 1.03125 -12.875 L 1.1875 -14.140625 L 3.8125 -14.125 C 4.375 -14.125 5.460938 -14.175781 7.078125 -14.28125 L 6.953125 -12.828125 C 6.566406 -12.765625 6.289062 -12.6875 6.125 -12.59375 C 5.957031 -12.5 5.835938 -12.351562 5.765625 -12.15625 C 5.703125 -11.96875 5.65625 -11.660156 5.625 -11.234375 L 5.5 -8.078125 L 8.375 -8.03125 C 9.144531 -8.03125 10.019531 -8.082031 11 -8.1875 L 11 -11.578125 C 11 -12.023438 10.945312 -12.328125 10.84375 -12.484375 C 10.738281 -12.640625 10.523438 -12.71875 10.203125 -12.71875 L 9.53125 -12.6875 L 9.421875 -12.875 L 9.59375 -14.140625 L 12.359375 -14.125 C 12.847656 -14.125 13.910156 -14.175781 15.546875 -14.28125 L 15.4375 -12.84375 C 14.894531 -12.769531 14.539062 -12.65625 14.375 -12.5 C 14.207031 -12.351562 14.109375 -12.066406 14.078125 -11.640625 C 14.003906 -10.347656 13.941406 -8.863281 13.890625 -7.1875 C 13.835938 -5.519531 13.8125 -4.117188 13.8125 -2.984375 C 13.8125 -2.367188 13.875 -1.953125 14 -1.734375 C 14.125 -1.515625 14.363281 -1.40625 14.71875 -1.40625 C 14.875 -1.40625 15.148438 -1.425781 15.546875 -1.46875 L 15.640625 -1.3125 L 15.4375 0.0625 C 15.238281 0.0625 15.085938 0.0546875 14.984375 0.046875 C 13.867188 0.015625 12.96875 0 12.28125 0 L 9.234375 0.046875 L 9.421875 -1.359375 C 9.835938 -1.378906 10.160156 -1.445312 10.390625 -1.5625 C 10.617188 -1.675781 10.773438 -1.875 10.859375 -2.15625 C 10.953125 -2.445312 11 -2.863281 11 -3.40625 L 11 -6.25 L 8.578125 -6.265625 C 8.253906 -6.265625 7.8125 -6.242188 7.25 -6.203125 C 6.695312 -6.160156 6.097656 -6.109375 5.453125 -6.046875 L 5.390625 -2.90625 C 5.390625 -2.300781 5.445312 -1.894531 5.5625 -1.6875 C 5.675781 -1.488281 5.90625 -1.390625 6.25 -1.390625 C 6.394531 -1.390625 6.664062 -1.410156 7.0625 -1.453125 L 7.171875 -1.3125 L 6.96875 0.0625 C 5.914062 0.0195312 5.035156 0 4.328125 0 C 3.835938 0 3.226562 0.0195312 2.5 0.0625 C 1.769531 0.101562 1.222656 0.148438 0.859375 0.203125 Z M 1.015625 -1.203125 "/></g></g></g><g fill="#ffde59" fill-opacity="1"><g transform="translate(217.084614, 275.484709)"><g><path d="M 12.25 -4.15625 C 12.019531 -3.007812 11.820312 -1.65625 11.65625 -0.09375 L 11.4375 0.15625 C 8.632812 0.0507812 6.351562 0 4.59375 0 C 3.363281 0 2.113281 0.0703125 0.84375 0.21875 L 0.984375 -1.25 C 1.597656 -1.34375 2.015625 -1.519531 2.234375 -1.78125 C 2.460938 -2.039062 2.578125 -2.492188 2.578125 -3.140625 L 2.59375 -11.53125 C 2.59375 -12.007812 2.546875 -12.328125 2.453125 -12.484375 C 2.367188 -12.640625 2.179688 -12.71875 1.890625 -12.71875 C 1.703125 -12.71875 1.472656 -12.703125 1.203125 -12.671875 L 1.078125 -12.875 L 1.25 -14.1875 L 1.6875 -14.1875 C 2.726562 -14.144531 3.910156 -14.125 5.234375 -14.125 C 8.503906 -14.125 10.734375 -14.210938 11.921875 -14.390625 L 12.09375 -14.140625 C 11.976562 -13.597656 11.875 -12.953125 11.78125 -12.203125 C 11.6875 -11.460938 11.625 -10.78125 11.59375 -10.15625 L 9.640625 -10.03125 L 9.6875 -10.90625 C 9.6875 -11.351562 9.625 -11.664062 9.5 -11.84375 C 9.375 -12.03125 9.125 -12.15625 8.75 -12.21875 C 8.375 -12.28125 7.742188 -12.3125 6.859375 -12.3125 C 6.484375 -12.3125 6.222656 -12.296875 6.078125 -12.265625 C 5.929688 -12.242188 5.832031 -12.179688 5.78125 -12.078125 C 5.726562 -11.972656 5.691406 -11.804688 5.671875 -11.578125 L 5.515625 -8.125 L 7.59375 -8.09375 C 7.894531 -8.09375 8.273438 -8.109375 8.734375 -8.140625 C 9.203125 -8.179688 9.671875 -8.234375 10.140625 -8.296875 L 10.3125 -8.09375 L 10.015625 -6.21875 C 9.816406 -6.21875 9.664062 -6.226562 9.5625 -6.25 C 8.539062 -6.28125 7.726562 -6.296875 7.125 -6.296875 C 6.675781 -6.296875 6.113281 -6.25 5.4375 -6.15625 L 5.390625 -3.015625 C 5.390625 -2.597656 5.421875 -2.300781 5.484375 -2.125 C 5.554688 -1.957031 5.679688 -1.84375 5.859375 -1.78125 C 6.046875 -1.71875 6.363281 -1.6875 6.8125 -1.6875 C 7.78125 -1.6875 8.476562 -1.742188 8.90625 -1.859375 C 9.34375 -1.972656 9.65625 -2.195312 9.84375 -2.53125 C 10.039062 -2.863281 10.191406 -3.421875 10.296875 -4.203125 L 12.09375 -4.359375 Z M 12.25 -4.15625 "/></g></g></g><g fill="#ffde59" fill-opacity="1"><g transform="translate(230.194277, 275.484709)"><g><path d="M 1.125 -1.25 C 1.675781 -1.34375 2.054688 -1.519531 2.265625 -1.78125 C 2.472656 -2.039062 2.578125 -2.492188 2.578125 -3.140625 L 2.59375 -11.578125 C 2.59375 -12.023438 2.539062 -12.328125 2.4375 -12.484375 C 2.332031 -12.640625 2.117188 -12.71875 1.796875 -12.71875 L 1.125 -12.6875 L 1.015625 -12.875 L 1.1875 -14.140625 L 4.140625 -14.125 C 4.546875 -14.125 5.140625 -14.144531 5.921875 -14.1875 C 6.710938 -14.226562 7.234375 -14.257812 7.484375 -14.28125 L 7.328125 -12.765625 C 6.828125 -12.703125 6.460938 -12.613281 6.234375 -12.5 C 6.003906 -12.394531 5.859375 -12.242188 5.796875 -12.046875 C 5.734375 -11.847656 5.6875 -11.535156 5.65625 -11.109375 C 5.488281 -8.910156 5.40625 -6.21875 5.40625 -3.03125 C 5.40625 -2.632812 5.441406 -2.34375 5.515625 -2.15625 C 5.585938 -1.976562 5.71875 -1.851562 5.90625 -1.78125 C 6.101562 -1.71875 6.398438 -1.6875 6.796875 -1.6875 C 7.523438 -1.6875 8.066406 -1.765625 8.421875 -1.921875 C 8.785156 -2.085938 9.054688 -2.398438 9.234375 -2.859375 C 9.410156 -3.316406 9.5625 -4.035156 9.6875 -5.015625 L 11.46875 -5.21875 L 11.609375 -5 C 11.566406 -4.71875 11.484375 -4.085938 11.359375 -3.109375 C 11.234375 -2.140625 11.128906 -1.117188 11.046875 -0.046875 L 10.828125 0.171875 C 10.429688 0.160156 9.570312 0.128906 8.25 0.078125 C 6.925781 0.0234375 5.726562 0 4.65625 0 C 3.851562 0 3.082031 0.0234375 2.34375 0.078125 C 1.613281 0.140625 1.148438 0.1875 0.953125 0.21875 Z M 1.125 -1.25 "/></g></g></g><g fill="#ffde59" fill-opacity="1"><g transform="translate(241.852201, 275.484709)"><g><path d="M 1.078125 -1.28125 C 1.679688 -1.382812 2.082031 -1.554688 2.28125 -1.796875 C 2.488281 -2.046875 2.59375 -2.488281 2.59375 -3.125 L 2.59375 -11.53125 C 2.59375 -12 2.546875 -12.3125 2.453125 -12.46875 C 2.359375 -12.632812 2.171875 -12.71875 1.890625 -12.71875 C 1.734375 -12.71875 1.578125 -12.707031 1.421875 -12.6875 C 1.273438 -12.675781 1.179688 -12.671875 1.140625 -12.671875 L 1.015625 -12.84375 L 1.1875 -14.140625 L 3.953125 -14.125 C 4.515625 -14.125 5.132812 -14.132812 5.8125 -14.15625 C 6.5 -14.175781 6.984375 -14.195312 7.265625 -14.21875 C 9.140625 -14.21875 10.488281 -13.820312 11.3125 -13.03125 C 12.132812 -12.238281 12.546875 -11.234375 12.546875 -10.015625 C 12.546875 -9.148438 12.296875 -8.332031 11.796875 -7.5625 C 11.304688 -6.789062 10.65625 -6.171875 9.84375 -5.703125 C 9.039062 -5.242188 8.1875 -5.015625 7.28125 -5.015625 L 5.4375 -5.015625 L 5.390625 -3.34375 C 5.390625 -2.769531 5.414062 -2.347656 5.46875 -2.078125 C 5.519531 -1.816406 5.613281 -1.640625 5.75 -1.546875 C 5.894531 -1.453125 6.117188 -1.40625 6.421875 -1.40625 C 6.628906 -1.40625 6.828125 -1.410156 7.015625 -1.421875 C 7.203125 -1.441406 7.332031 -1.453125 7.40625 -1.453125 L 7.484375 -1.34375 L 7.28125 0.0625 C 7.070312 0.0625 6.691406 0.0507812 6.140625 0.03125 C 5.597656 0.0078125 5.066406 0 4.546875 0 C 4.054688 0 3.394531 0.0195312 2.5625 0.0625 C 1.726562 0.101562 1.175781 0.140625 0.90625 0.171875 Z M 7.4375 -6.671875 C 8.800781 -6.960938 9.484375 -7.96875 9.484375 -9.6875 C 9.484375 -10.625 9.21875 -11.304688 8.6875 -11.734375 C 8.15625 -12.171875 7.320312 -12.390625 6.1875 -12.390625 C 5.976562 -12.390625 5.847656 -12.367188 5.796875 -12.328125 C 5.742188 -12.296875 5.710938 -12.191406 5.703125 -12.015625 C 5.609375 -10.691406 5.535156 -9.003906 5.484375 -6.953125 Z M 7.4375 -6.671875 "/></g></g></g><g fill="#ffde59" fill-opacity="1"><g transform="translate(254.521943, 275.484709)"><g><path d="M 12.25 -4.15625 C 12.019531 -3.007812 11.820312 -1.65625 11.65625 -0.09375 L 11.4375 0.15625 C 8.632812 0.0507812 6.351562 0 4.59375 0 C 3.363281 0 2.113281 0.0703125 0.84375 0.21875 L 0.984375 -1.25 C 1.597656 -1.34375 2.015625 -1.519531 2.234375 -1.78125 C 2.460938 -2.039062 2.578125 -2.492188 2.578125 -3.140625 L 2.59375 -11.53125 C 2.59375 -12.007812 2.546875 -12.328125 2.453125 -12.484375 C 2.367188 -12.640625 2.179688 -12.71875 1.890625 -12.71875 C 1.703125 -12.71875 1.472656 -12.703125 1.203125 -12.671875 L 1.078125 -12.875 L 1.25 -14.1875 L 1.6875 -14.1875 C 2.726562 -14.144531 3.910156 -14.125 5.234375 -14.125 C 8.503906 -14.125 10.734375 -14.210938 11.921875 -14.390625 L 12.09375 -14.140625 C 11.976562 -13.597656 11.875 -12.953125 11.78125 -12.203125 C 11.6875 -11.460938 11.625 -10.78125 11.59375 -10.15625 L 9.640625 -10.03125 L 9.6875 -10.90625 C 9.6875 -11.351562 9.625 -11.664062 9.5 -11.84375 C 9.375 -12.03125 9.125 -12.15625 8.75 -12.21875 C 8.375 -12.28125 7.742188 -12.3125 6.859375 -12.3125 C 6.484375 -12.3125 6.222656 -12.296875 6.078125 -12.265625 C 5.929688 -12.242188 5.832031 -12.179688 5.78125 -12.078125 C 5.726562 -11.972656 5.691406 -11.804688 5.671875 -11.578125 L 5.515625 -8.125 L 7.59375 -8.09375 C 7.894531 -8.09375 8.273438 -8.109375 8.734375 -8.140625 C 9.203125 -8.179688 9.671875 -8.234375 10.140625 -8.296875 L 10.3125 -8.09375 L 10.015625 -6.21875 C 9.816406 -6.21875 9.664062 -6.226562 9.5625 -6.25 C 8.539062 -6.28125 7.726562 -6.296875 7.125 -6.296875 C 6.675781 -6.296875 6.113281 -6.25 5.4375 -6.15625 L 5.390625 -3.015625 C 5.390625 -2.597656 5.421875 -2.300781 5.484375 -2.125 C 5.554688 -1.957031 5.679688 -1.84375 5.859375 -1.78125 C 6.046875 -1.71875 6.363281 -1.6875 6.8125 -1.6875 C 7.78125 -1.6875 8.476562 -1.742188 8.90625 -1.859375 C 9.34375 -1.972656 9.65625 -2.195312 9.84375 -2.53125 C 10.039062 -2.863281 10.191406 -3.421875 10.296875 -4.203125 L 12.09375 -4.359375 Z M 12.25 -4.15625 "/></g></g></g><g fill="#ffde59" fill-opacity="1"><g transform="translate(267.631607, 275.484709)"><g><path d="M 11.3125 0.359375 C 10.351562 0.359375 9.550781 -0.320312 8.90625 -1.6875 L 7 -5.5625 L 5.4375 -5.5625 L 5.390625 -3.078125 C 5.390625 -2.566406 5.425781 -2.195312 5.5 -1.96875 C 5.570312 -1.738281 5.707031 -1.585938 5.90625 -1.515625 C 6.113281 -1.441406 6.46875 -1.398438 6.96875 -1.390625 L 7.046875 -1.25 L 6.84375 0.09375 C 6.582031 0.0703125 6.117188 0.0507812 5.453125 0.03125 C 4.796875 0.0195312 4.1875 0.015625 3.625 0.015625 C 3.082031 0.015625 2.523438 0.03125 1.953125 0.0625 C 1.378906 0.09375 1.007812 0.113281 0.84375 0.125 L 1.03125 -1.3125 C 1.644531 -1.394531 2.054688 -1.554688 2.265625 -1.796875 C 2.484375 -2.046875 2.59375 -2.488281 2.59375 -3.125 L 2.59375 -11.640625 C 2.59375 -12.066406 2.546875 -12.351562 2.453125 -12.5 C 2.359375 -12.644531 2.171875 -12.71875 1.890625 -12.71875 C 1.734375 -12.71875 1.578125 -12.707031 1.421875 -12.6875 C 1.273438 -12.675781 1.179688 -12.671875 1.140625 -12.671875 L 1.015625 -12.84375 L 1.203125 -14.171875 C 1.410156 -14.171875 1.789062 -14.160156 2.34375 -14.140625 C 2.894531 -14.128906 3.429688 -14.125 3.953125 -14.125 C 4.546875 -14.125 5.179688 -14.132812 5.859375 -14.15625 C 6.546875 -14.175781 7.019531 -14.195312 7.28125 -14.21875 C 8.957031 -14.21875 10.238281 -13.894531 11.125 -13.25 C 12.007812 -12.601562 12.453125 -11.671875 12.453125 -10.453125 C 12.453125 -9.585938 12.191406 -8.796875 11.671875 -8.078125 C 11.160156 -7.359375 10.429688 -6.753906 9.484375 -6.265625 L 11.421875 -3.125 C 11.828125 -2.445312 12.21875 -1.960938 12.59375 -1.671875 C 12.976562 -1.378906 13.40625 -1.234375 13.875 -1.234375 L 14.03125 -1.03125 L 13.875 0.109375 Z M 7.484375 -7.265625 C 7.960938 -7.460938 8.398438 -7.765625 8.796875 -8.171875 C 9.191406 -8.578125 9.390625 -9.203125 9.390625 -10.046875 C 9.390625 -10.859375 9.117188 -11.460938 8.578125 -11.859375 C 8.035156 -12.253906 7.203125 -12.453125 6.078125 -12.453125 C 5.929688 -12.453125 5.832031 -12.421875 5.78125 -12.359375 C 5.726562 -12.304688 5.691406 -12.175781 5.671875 -11.96875 C 5.585938 -10.457031 5.53125 -8.960938 5.5 -7.484375 Z M 7.484375 -7.265625 "/></g></g></g><g fill="#ffffff" fill-opacity="1"><g transform="translate(118.138773, 288.068064)"><g><path d="M 1.546875 -5.65625 C 1.984375 -5.65625 2.304688 -5.523438 2.515625 -5.265625 C 2.734375 -5.015625 2.84375 -4.675781 2.84375 -4.25 L 2.84375 -1.359375 C 2.84375 -0.992188 2.769531 -0.703125 2.625 -0.484375 C 2.65625 -0.410156 2.695312 -0.359375 2.75 -0.328125 C 2.800781 -0.304688 2.875 -0.296875 2.96875 -0.296875 L 3.046875 -0.296875 L 3.046875 0.25 L 2.9375 0.25 C 2.601562 0.25 2.367188 0.128906 2.234375 -0.109375 C 2.140625 -0.0546875 2.035156 -0.015625 1.921875 0.015625 C 1.816406 0.046875 1.691406 0.0625 1.546875 0.0625 C 1.117188 0.0625 0.796875 -0.0664062 0.578125 -0.328125 C 0.367188 -0.585938 0.265625 -0.929688 0.265625 -1.359375 L 0.265625 -4.25 C 0.265625 -4.675781 0.367188 -5.015625 0.578125 -5.265625 C 0.796875 -5.523438 1.117188 -5.65625 1.546875 -5.65625 Z M 1.546875 -5.09375 C 1.328125 -5.09375 1.160156 -5.019531 1.046875 -4.875 C 0.941406 -4.726562 0.890625 -4.53125 0.890625 -4.28125 L 0.890625 -1.3125 C 0.890625 -1.0625 0.941406 -0.863281 1.046875 -0.71875 C 1.160156 -0.582031 1.328125 -0.515625 1.546875 -0.515625 C 1.773438 -0.515625 1.941406 -0.582031 2.046875 -0.71875 C 2.160156 -0.863281 2.21875 -1.0625 2.21875 -1.3125 L 2.21875 -4.28125 C 2.21875 -4.53125 2.160156 -4.726562 2.046875 -4.875 C 1.941406 -5.019531 1.773438 -5.09375 1.546875 -5.09375 Z M 1.546875 -5.09375 "/></g></g></g><g fill="#ffffff" fill-opacity="1"><g transform="translate(124.794816, 288.068064)"><g><path d="M 0.90625 -1.3125 C 0.90625 -1.0625 0.957031 -0.863281 1.0625 -0.71875 C 1.164062 -0.582031 1.332031 -0.515625 1.5625 -0.515625 C 1.789062 -0.515625 1.957031 -0.582031 2.0625 -0.71875 C 2.164062 -0.863281 2.21875 -1.0625 2.21875 -1.3125 L 2.21875 -5.59375 L 2.796875 -5.59375 L 2.796875 -1.359375 C 2.796875 -0.929688 2.691406 -0.585938 2.484375 -0.328125 C 2.285156 -0.0664062 1.972656 0.0625 1.546875 0.0625 C 1.117188 0.0625 0.800781 -0.0664062 0.59375 -0.328125 C 0.394531 -0.585938 0.296875 -0.929688 0.296875 -1.359375 L 0.296875 -5.59375 L 0.90625 -5.59375 Z M 0.90625 -1.3125 "/></g></g></g><g fill="#ffffff" fill-opacity="1"><g transform="translate(131.330854, 288.068064)"><g><path d="M 0.9375 -5.59375 L 0.9375 0 L 0.3125 0 L 0.3125 -5.59375 Z M 0.9375 -5.59375 "/></g></g></g><g fill="#ffffff" fill-opacity="1"><g transform="translate(136.034876, 288.068064)"><g><path d="M 1.53125 -5.65625 C 1.957031 -5.65625 2.273438 -5.523438 2.484375 -5.265625 C 2.691406 -5.015625 2.796875 -4.675781 2.796875 -4.25 L 2.796875 -3.75 L 2.203125 -3.75 L 2.203125 -4.28125 C 2.203125 -4.53125 2.148438 -4.726562 2.046875 -4.875 C 1.941406 -5.019531 1.773438 -5.09375 1.546875 -5.09375 C 1.316406 -5.09375 1.148438 -5.019531 1.046875 -4.875 C 0.941406 -4.726562 0.890625 -4.53125 0.890625 -4.28125 L 0.890625 -1.3125 C 0.890625 -1.0625 0.941406 -0.863281 1.046875 -0.71875 C 1.148438 -0.582031 1.316406 -0.515625 1.546875 -0.515625 C 1.773438 -0.515625 1.941406 -0.582031 2.046875 -0.71875 C 2.148438 -0.863281 2.203125 -1.0625 2.203125 -1.3125 L 2.203125 -2.046875 L 2.796875 -2.046875 L 2.796875 -1.359375 C 2.796875 -0.929688 2.691406 -0.585938 2.484375 -0.328125 C 2.273438 -0.0664062 1.957031 0.0625 1.53125 0.0625 C 1.101562 0.0625 0.785156 -0.0664062 0.578125 -0.328125 C 0.367188 -0.585938 0.265625 -0.929688 0.265625 -1.359375 L 0.265625 -4.25 C 0.265625 -4.457031 0.289062 -4.648438 0.34375 -4.828125 C 0.394531 -5.003906 0.472656 -5.148438 0.578125 -5.265625 C 0.679688 -5.390625 0.8125 -5.484375 0.96875 -5.546875 C 1.125 -5.617188 1.3125 -5.65625 1.53125 -5.65625 Z M 1.53125 -5.65625 "/></g></g></g><g fill="#ffffff" fill-opacity="1"><g transform="translate(142.514914, 288.068064)"><g><path d="M 1.265625 -2.4375 L 0.9375 -1.875 L 0.9375 0 L 0.3125 0 L 0.3125 -5.59375 L 0.9375 -5.59375 L 0.9375 -2.890625 L 2.4375 -5.59375 L 3.0625 -5.59375 L 1.640625 -3.046875 L 3.109375 0 L 2.46875 0 Z M 1.265625 -2.4375 "/></g></g></g><g fill="#ffffff" fill-opacity="1"><g transform="translate(149.226957, 288.068064)"><g/></g></g><g fill="#ffffff" fill-opacity="1"><g transform="translate(153.906982, 288.068064)"><g><path d="M 0.9375 -2.515625 L 0.9375 0 L 0.3125 0 L 0.3125 -5.59375 L 0.9375 -5.59375 L 0.9375 -3.078125 L 2.3125 -3.078125 L 2.3125 -5.59375 L 2.9375 -5.59375 L 2.9375 0 L 2.3125 0 L 2.3125 -2.515625 Z M 0.9375 -2.515625 "/></g></g></g><g fill="#ffffff" fill-opacity="1"><g transform="translate(160.61103, 288.068064)"><g><path d="M 0.953125 -1.125 L 0.734375 0 L 0.15625 0 L 1.234375 -5.59375 L 2.140625 -5.59375 L 3.203125 0 L 2.578125 0 L 2.375 -1.125 Z M 1.03125 -1.65625 L 2.28125 -1.65625 L 1.640625 -4.890625 Z M 1.03125 -1.65625 "/></g></g></g><g fill="#ffffff" fill-opacity="1"><g transform="translate(167.427078, 288.068064)"><g><path d="M 0.875 0 L 0.3125 0 L 0.3125 -5.59375 L 1.109375 -5.59375 L 2.40625 -1.546875 L 2.40625 -5.59375 L 2.953125 -5.59375 L 2.953125 0 L 2.296875 0 L 0.875 -4.53125 Z M 0.875 0 "/></g></g></g><g fill="#ffffff" fill-opacity="1"><g transform="translate(174.139124, 288.068064)"><g><path d="M 1.625 -5.59375 C 2.0625 -5.59375 2.382812 -5.46875 2.59375 -5.21875 C 2.800781 -4.976562 2.90625 -4.640625 2.90625 -4.203125 L 2.90625 -1.390625 C 2.90625 -0.953125 2.800781 -0.609375 2.59375 -0.359375 C 2.382812 -0.117188 2.0625 0 1.625 0 L 0.3125 0 L 0.3125 -5.59375 Z M 1.625 -0.5625 C 1.84375 -0.5625 2.003906 -0.628906 2.109375 -0.765625 C 2.222656 -0.898438 2.28125 -1.097656 2.28125 -1.359375 L 2.28125 -4.234375 C 2.28125 -4.492188 2.222656 -4.691406 2.109375 -4.828125 C 2.003906 -4.960938 1.835938 -5.03125 1.609375 -5.03125 L 0.9375 -5.03125 L 0.9375 -0.5625 Z M 1.625 -0.5625 "/></g></g></g><g fill="#ffffff" fill-opacity="1"><g transform="translate(180.747166, 288.068064)"><g><path d="M 1.3125 -2.015625 L 0.125 -5.59375 L 0.78125 -5.59375 L 1.640625 -2.84375 L 2.53125 -5.59375 L 3.125 -5.59375 L 1.921875 -2.015625 L 1.921875 0 L 1.3125 0 Z M 1.3125 -2.015625 "/></g></g></g><g fill="#ffffff" fill-opacity="1"><g transform="translate(187.435215, 288.068064)"><g><path d="M 2.390625 -0.015625 L 1.78125 -0.015625 L 0.859375 -4.46875 L 0.859375 0 L 0.3125 0 L 0.3125 -5.59375 L 1.1875 -5.59375 L 2.109375 -1.125 L 2.984375 -5.59375 L 3.859375 -5.59375 L 3.859375 0 L 3.265625 0 L 3.265625 -4.5 Z M 2.390625 -0.015625 "/></g></g></g><g fill="#ffffff" fill-opacity="1"><g transform="translate(195.059271, 288.068064)"><g><path d="M 0.953125 -1.125 L 0.734375 0 L 0.15625 0 L 1.234375 -5.59375 L 2.140625 -5.59375 L 3.203125 0 L 2.578125 0 L 2.375 -1.125 Z M 1.03125 -1.65625 L 2.28125 -1.65625 L 1.640625 -4.890625 Z M 1.03125 -1.65625 "/></g></g></g><g fill="#ffffff" fill-opacity="1"><g transform="translate(201.875322, 288.068064)"><g><path d="M 0.875 0 L 0.3125 0 L 0.3125 -5.59375 L 1.109375 -5.59375 L 2.40625 -1.546875 L 2.40625 -5.59375 L 2.953125 -5.59375 L 2.953125 0 L 2.296875 0 L 0.875 -4.53125 Z M 0.875 0 "/></g></g></g><g fill="#ffffff" fill-opacity="1"><g transform="translate(208.587368, 288.068064)"><g/></g></g><g fill="#ffffff" fill-opacity="1"><g transform="translate(213.267395, 288.068064)"><g><path d="M 1.5 -5.65625 C 1.925781 -5.65625 2.238281 -5.523438 2.4375 -5.265625 C 2.644531 -5.015625 2.75 -4.675781 2.75 -4.25 L 2.75 -4.109375 L 2.15625 -4.109375 L 2.15625 -4.28125 C 2.15625 -4.539062 2.101562 -4.738281 2 -4.875 C 1.894531 -5.019531 1.734375 -5.09375 1.515625 -5.09375 C 1.285156 -5.09375 1.117188 -5.019531 1.015625 -4.875 C 0.921875 -4.738281 0.875 -4.546875 0.875 -4.296875 C 0.875 -4.085938 0.921875 -3.90625 1.015625 -3.75 C 1.109375 -3.59375 1.222656 -3.445312 1.359375 -3.3125 C 1.492188 -3.1875 1.644531 -3.0625 1.8125 -2.9375 C 1.976562 -2.8125 2.128906 -2.671875 2.265625 -2.515625 C 2.398438 -2.367188 2.515625 -2.203125 2.609375 -2.015625 C 2.703125 -1.828125 2.75 -1.601562 2.75 -1.34375 C 2.75 -0.914062 2.644531 -0.570312 2.4375 -0.3125 C 2.238281 -0.0625 1.921875 0.0625 1.484375 0.0625 C 1.054688 0.0625 0.738281 -0.0625 0.53125 -0.3125 C 0.332031 -0.570312 0.234375 -0.914062 0.234375 -1.34375 L 0.234375 -1.65625 L 0.8125 -1.65625 L 0.8125 -1.3125 C 0.8125 -1.050781 0.863281 -0.851562 0.96875 -0.71875 C 1.082031 -0.582031 1.25 -0.515625 1.46875 -0.515625 C 1.695312 -0.515625 1.863281 -0.582031 1.96875 -0.71875 C 2.070312 -0.851562 2.125 -1.050781 2.125 -1.3125 C 2.125 -1.519531 2.078125 -1.695312 1.984375 -1.84375 C 1.890625 -2 1.773438 -2.140625 1.640625 -2.265625 C 1.503906 -2.398438 1.351562 -2.53125 1.1875 -2.65625 C 1.03125 -2.78125 0.878906 -2.914062 0.734375 -3.0625 C 0.597656 -3.21875 0.484375 -3.390625 0.390625 -3.578125 C 0.296875 -3.765625 0.25 -3.988281 0.25 -4.25 C 0.25 -4.6875 0.347656 -5.03125 0.546875 -5.28125 C 0.753906 -5.53125 1.070312 -5.65625 1.5 -5.65625 Z M 1.5 -5.65625 "/></g></g></g><g fill="#ffffff" fill-opacity="1"><g transform="translate(219.68344, 288.068064)"><g><path d="M 2.3125 -3.125 L 2.3125 -2.5625 L 0.9375 -2.5625 L 0.9375 -0.5625 L 2.625 -0.5625 L 2.625 0 L 0.3125 0 L 0.3125 -5.59375 L 2.625 -5.59375 L 2.625 -5.03125 L 0.9375 -5.03125 L 0.9375 -3.125 Z M 2.3125 -3.125 "/></g></g></g><g fill="#ffffff" fill-opacity="1"><g transform="translate(226.003486, 288.068064)"><g><path d="M 1.5625 -5.59375 C 2.007812 -5.59375 2.328125 -5.484375 2.515625 -5.265625 C 2.710938 -5.046875 2.8125 -4.726562 2.8125 -4.3125 L 2.8125 -3.859375 C 2.8125 -3.554688 2.753906 -3.304688 2.640625 -3.109375 C 2.535156 -2.921875 2.363281 -2.789062 2.125 -2.71875 C 2.375 -2.632812 2.550781 -2.492188 2.65625 -2.296875 C 2.769531 -2.097656 2.828125 -1.847656 2.828125 -1.546875 L 2.828125 -0.671875 C 2.828125 -0.546875 2.832031 -0.425781 2.84375 -0.3125 C 2.851562 -0.195312 2.882812 -0.09375 2.9375 0 L 2.296875 0 C 2.265625 -0.0820312 2.238281 -0.171875 2.21875 -0.265625 C 2.207031 -0.359375 2.203125 -0.5 2.203125 -0.6875 L 2.203125 -1.5625 C 2.203125 -1.875 2.128906 -2.085938 1.984375 -2.203125 C 1.847656 -2.328125 1.648438 -2.390625 1.390625 -2.390625 L 0.9375 -2.390625 L 0.9375 0 L 0.3125 0 L 0.3125 -5.59375 Z M 1.40625 -2.953125 C 1.65625 -2.953125 1.847656 -3.003906 1.984375 -3.109375 C 2.128906 -3.210938 2.203125 -3.421875 2.203125 -3.734375 L 2.203125 -4.265625 C 2.203125 -4.515625 2.148438 -4.703125 2.046875 -4.828125 C 1.953125 -4.960938 1.785156 -5.03125 1.546875 -5.03125 L 0.9375 -5.03125 L 0.9375 -2.953125 Z M 1.40625 -2.953125 "/></g></g></g><g fill="#ffffff" fill-opacity="1"><g transform="translate(232.595527, 288.068064)"><g><path d="M 0.796875 -5.59375 L 1.703125 -0.734375 L 2.609375 -5.59375 L 3.1875 -5.59375 L 2.140625 0 L 1.21875 0 L 0.15625 -5.59375 Z M 0.796875 -5.59375 "/></g></g></g><g fill="#ffffff" fill-opacity="1"><g transform="translate(239.379574, 288.068064)"><g><path d="M 0.9375 -5.59375 L 0.9375 0 L 0.3125 0 L 0.3125 -5.59375 Z M 0.9375 -5.59375 "/></g></g></g><g fill="#ffffff" fill-opacity="1"><g transform="translate(244.083598, 288.068064)"><g><path d="M 1.53125 -5.65625 C 1.957031 -5.65625 2.273438 -5.523438 2.484375 -5.265625 C 2.691406 -5.015625 2.796875 -4.675781 2.796875 -4.25 L 2.796875 -3.75 L 2.203125 -3.75 L 2.203125 -4.28125 C 2.203125 -4.53125 2.148438 -4.726562 2.046875 -4.875 C 1.941406 -5.019531 1.773438 -5.09375 1.546875 -5.09375 C 1.316406 -5.09375 1.148438 -5.019531 1.046875 -4.875 C 0.941406 -4.726562 0.890625 -4.53125 0.890625 -4.28125 L 0.890625 -1.3125 C 0.890625 -1.0625 0.941406 -0.863281 1.046875 -0.71875 C 1.148438 -0.582031 1.316406 -0.515625 1.546875 -0.515625 C 1.773438 -0.515625 1.941406 -0.582031 2.046875 -0.71875 C 2.148438 -0.863281 2.203125 -1.0625 2.203125 -1.3125 L 2.203125 -2.046875 L 2.796875 -2.046875 L 2.796875 -1.359375 C 2.796875 -0.929688 2.691406 -0.585938 2.484375 -0.328125 C 2.273438 -0.0664062 1.957031 0.0625 1.53125 0.0625 C 1.101562 0.0625 0.785156 -0.0664062 0.578125 -0.328125 C 0.367188 -0.585938 0.265625 -0.929688 0.265625 -1.359375 L 0.265625 -4.25 C 0.265625 -4.457031 0.289062 -4.648438 0.34375 -4.828125 C 0.394531 -5.003906 0.472656 -5.148438 0.578125 -5.265625 C 0.679688 -5.390625 0.8125 -5.484375 0.96875 -5.546875 C 1.125 -5.617188 1.3125 -5.65625 1.53125 -5.65625 Z M 1.53125 -5.65625 "/></g></g></g><g fill="#ffffff" fill-opacity="1"><g transform="translate(250.563639, 288.068064)"><g><path d="M 2.3125 -3.125 L 2.3125 -2.5625 L 0.9375 -2.5625 L 0.9375 -0.5625 L 2.625 -0.5625 L 2.625 0 L 0.3125 0 L 0.3125 -5.59375 L 2.625 -5.59375 L 2.625 -5.03125 L 0.9375 -5.03125 L 0.9375 -3.125 Z M 2.3125 -3.125 "/></g></g></g><g fill="#ffffff" fill-opacity="1"><g transform="translate(256.883686, 288.068064)"><g><path d="M 1.5 -5.65625 C 1.925781 -5.65625 2.238281 -5.523438 2.4375 -5.265625 C 2.644531 -5.015625 2.75 -4.675781 2.75 -4.25 L 2.75 -4.109375 L 2.15625 -4.109375 L 2.15625 -4.28125 C 2.15625 -4.539062 2.101562 -4.738281 2 -4.875 C 1.894531 -5.019531 1.734375 -5.09375 1.515625 -5.09375 C 1.285156 -5.09375 1.117188 -5.019531 1.015625 -4.875 C 0.921875 -4.738281 0.875 -4.546875 0.875 -4.296875 C 0.875 -4.085938 0.921875 -3.90625 1.015625 -3.75 C 1.109375 -3.59375 1.222656 -3.445312 1.359375 -3.3125 C 1.492188 -3.1875 1.644531 -3.0625 1.8125 -2.9375 C 1.976562 -2.8125 2.128906 -2.671875 2.265625 -2.515625 C 2.398438 -2.367188 2.515625 -2.203125 2.609375 -2.015625 C 2.703125 -1.828125 2.75 -1.601562 2.75 -1.34375 C 2.75 -0.914062 2.644531 -0.570312 2.4375 -0.3125 C 2.238281 -0.0625 1.921875 0.0625 1.484375 0.0625 C 1.054688 0.0625 0.738281 -0.0625 0.53125 -0.3125 C 0.332031 -0.570312 0.234375 -0.914062 0.234375 -1.34375 L 0.234375 -1.65625 L 0.8125 -1.65625 L 0.8125 -1.3125 C 0.8125 -1.050781 0.863281 -0.851562 0.96875 -0.71875 C 1.082031 -0.582031 1.25 -0.515625 1.46875 -0.515625 C 1.695312 -0.515625 1.863281 -0.582031 1.96875 -0.71875 C 2.070312 -0.851562 2.125 -1.050781 2.125 -1.3125 C 2.125 -1.519531 2.078125 -1.695312 1.984375 -1.84375 C 1.890625 -2 1.773438 -2.140625 1.640625 -2.265625 C 1.503906 -2.398438 1.351562 -2.53125 1.1875 -2.65625 C 1.03125 -2.78125 0.878906 -2.914062 0.734375 -3.0625 C 0.597656 -3.21875 0.484375 -3.390625 0.390625 -3.578125 C 0.296875 -3.765625 0.25 -3.988281 0.25 -4.25 C 0.25 -4.6875 0.347656 -5.03125 0.546875 -5.28125 C 0.753906 -5.53125 1.070312 -5.65625 1.5 -5.65625 Z M 1.5 -5.65625 "/></g></g></g><g fill="#ffffff" fill-opacity="1"><g transform="translate(190.71191, 298.734763)"><g/></g></g></svg>